<svg version="1.1" id="Layer_1" xmlns="http://www.w3.org/2000/svg" xmlns:xlink="http://www.w3.org/1999/xlink" x="0px" y="0px"
	 width="100%" viewBox="0 0 2000 2000" enable-background="new 0 0 2000 2000" xml:space="preserve">
<path fill="#000000" opacity="1.000000" stroke="none" 
	d="
M1.000000,1915.000000 
	C1.000000,1304.295776 1.000000,693.591492 1.360319,82.305252 
	C1.831328,81.240646 1.955487,80.760620 2.050784,80.274948 
	C9.050682,44.599987 29.069633,19.652218 63.245266,6.672901 
	C69.919067,4.138306 77.069443,2.858539 84.000000,1.000000 
	C694.704285,1.000000 1305.408569,1.000000 1916.734131,1.365895 
	C1952.182861,4.504936 1985.022461,30.838692 1995.881592,65.008789 
	C1998.057739,71.856491 1999.317627,78.995377 2001.000000,86.000000 
	C2001.000000,696.370911 2001.000000,1306.741821 2000.655029,1917.750732 
	C1995.116211,1952.323608 1977.537109,1977.510498 1946.322998,1992.028076 
	C1936.595459,1996.552490 1925.480103,1998.093506 1915.000000,2001.000000 
	C1305.962402,2001.000000 696.924805,2001.000000 87.043648,2000.971436 
	C85.251976,2000.686157 84.318794,2000.315430 83.353615,2000.189087 
	C53.187618,1996.237671 30.420729,1980.838135 14.318653,1955.327759 
	C6.557063,1943.031372 3.008695,1929.246216 1.000000,1915.000000 
M622.863525,1635.646729 
	C643.002808,1649.905396 665.498352,1657.074585 690.060425,1655.723877 
	C753.320679,1652.244629 805.325256,1626.271362 843.741333,1575.427856 
	C873.803772,1535.640259 895.449890,1491.330566 911.125183,1444.024048 
	C921.635010,1412.306396 922.414001,1380.326782 914.945251,1347.940063 
	C912.227356,1336.154663 904.495789,1329.429199 893.388062,1325.965210 
	C891.022949,1325.227661 888.610107,1324.643311 886.506470,1324.067139 
	C886.506470,1315.894165 886.316772,1308.072388 886.537476,1300.262207 
	C887.902161,1251.962280 890.948425,1203.647827 890.432678,1155.370361 
	C889.540894,1071.907471 886.527893,988.465942 884.266785,905.019165 
	C882.989624,857.883972 881.406677,810.757019 880.039612,763.624146 
	C879.819275,756.027283 880.008667,748.418518 880.008667,741.483887 
	C892.165955,737.657227 904.159790,734.663025 915.556213,730.157654 
	C960.884827,712.237671 1003.527344,688.803040 1045.598267,664.474121 
	C1078.302124,645.562195 1110.208496,625.241699 1142.116699,604.991882 
	C1174.874023,584.203125 1207.718384,563.481812 1239.574707,541.362915 
	C1271.435547,519.240967 1302.113770,495.416595 1333.332764,472.368683 
	C1336.444458,470.071442 1339.711426,467.984528 1344.204956,464.912109 
	C1342.237671,475.845917 1340.301270,485.110779 1338.936646,494.459106 
	C1333.741943,530.047058 1328.551758,565.637451 1323.700195,601.273254 
	C1318.173218,641.869812 1313.031250,682.518677 1307.681030,723.139465 
	C1303.961914,751.375061 1300.426880,779.638062 1296.357300,807.823547 
	C1290.075073,851.333130 1283.117310,894.747192 1277.136597,938.296631 
	C1275.892090,947.357239 1273.902222,954.176941 1264.283447,956.719543 
	C1262.078125,957.302551 1260.111084,958.763611 1258.011719,959.773682 
	C1231.330322,972.610718 1206.094360,987.554443 1184.510010,1008.213379 
	C1139.576538,1051.220459 1111.474365,1102.810669 1104.554932,1165.040771 
	C1101.895020,1188.963379 1105.152954,1212.278564 1119.258057,1232.472534 
	C1140.183960,1262.431763 1169.452148,1275.478271 1205.699097,1270.705688 
	C1226.308716,1267.992065 1243.960938,1257.406494 1260.485474,1245.351440 
	C1295.489258,1219.815796 1325.208740,1188.757568 1351.360229,1154.482056 
	C1386.335327,1108.641846 1404.944824,1057.412476 1397.919067,998.810974 
	C1395.862793,981.658813 1394.927490,964.208984 1386.277954,948.538208 
	C1385.536499,947.194763 1385.515991,945.302063 1385.587524,943.683411 
	C1387.946411,890.254578 1390.263550,836.823608 1392.785278,783.402405 
	C1395.778564,719.993286 1398.986572,656.594360 1402.042358,593.188171 
	C1404.809326,535.776489 1407.408569,478.356598 1410.280151,420.950256 
	C1411.012085,406.315735 1412.946899,391.736237 1413.511353,377.099915 
	C1414.104614,361.716644 1406.358887,350.276398 1394.372925,346.364502 
	C1382.950928,342.636627 1373.915039,346.641052 1365.702271,354.289490 
	C1347.905151,370.863556 1330.378296,387.748047 1312.142456,403.826630 
	C1273.631836,437.781433 1230.612549,465.474213 1186.778809,491.853241 
	C1140.704712,519.580566 1094.438110,547.007568 1047.804932,573.780945 
	C1001.758667,600.217346 955.410095,626.182556 906.581543,647.309387 
	C898.717590,650.711853 890.578125,653.477539 882.157166,656.693726 
	C881.655334,653.744812 881.376770,651.617676 880.923340,649.528381 
	C878.817688,639.826233 874.678345,630.759094 865.019409,627.319458 
	C846.299133,620.652710 829.755005,629.072937 827.304932,650.798828 
	C826.726257,655.930176 824.981201,659.356445 821.100891,662.542114 
	C810.671570,671.104370 807.944214,685.390991 814.609741,696.794006 
	C817.287415,701.374695 818.024719,705.982544 817.793213,711.110535 
	C817.117126,726.084229 816.507202,741.063843 816.139221,756.047791 
	C815.582886,778.702271 815.654907,801.378418 814.753540,824.017212 
	C811.678345,901.253784 808.517090,978.488342 804.928772,1055.702271 
	C803.281738,1091.142578 800.686707,1126.541382 798.298523,1161.943970 
	C795.977539,1196.350098 793.541626,1230.750366 790.836487,1265.128052 
	C788.655090,1292.849243 786.779602,1320.652832 779.092712,1347.584839 
	C778.467163,1349.776367 776.555359,1352.278198 774.558472,1353.296143 
	C754.760376,1363.387451 735.743530,1374.626709 719.014526,1389.414795 
	C687.864502,1416.950928 661.868713,1448.996704 637.912598,1482.756348 
	C622.845032,1503.989990 609.786255,1526.431152 600.458130,1550.848999 
	C595.298340,1564.355713 591.711304,1578.206421 594.425781,1592.835327 
	C597.763245,1610.821289 608.015747,1624.366821 622.863525,1635.646729 
M502.499695,445.513702 
	C690.332825,445.513702 878.165894,445.513885 1065.999023,445.513641 
	C1118.498901,445.513580 1170.998901,445.536072 1223.498657,445.443970 
	C1226.221313,445.439209 1229.549072,445.279114 1231.570679,443.795380 
	C1254.109131,427.254150 1277.098389,411.229279 1298.644165,393.462067 
	C1318.270142,377.277863 1336.296265,359.150269 1354.979248,341.826996 
	C1370.985840,326.985352 1388.219971,324.455627 1406.883789,334.112091 
	C1423.198242,342.553070 1429.987427,357.688080 1429.815796,375.570343 
	C1429.692871,388.363922 1428.253296,401.146454 1427.353271,413.930573 
	C1426.622559,424.311890 1425.820557,434.688202 1425.016968,445.513733 
	C1427.718994,445.513733 1429.693359,445.513733 1431.667847,445.513733 
	C1527.001099,445.513733 1622.334229,445.536530 1717.667480,445.454651 
	C1723.133301,445.449951 1728.657959,444.956116 1734.054321,444.072693 
	C1779.302368,436.665283 1801.294800,382.922668 1774.218628,345.842346 
	C1760.587280,327.174408 1741.728882,319.429321 1718.903442,319.432678 
	C1240.237427,319.503693 761.571350,319.485992 282.905273,319.495819 
	C280.407379,319.495880 277.899292,319.519714 275.413208,319.733398 
	C249.109085,321.993866 230.020599,335.015991 220.523315,359.611328 
	C210.640457,385.205231 216.323883,408.466583 235.642548,427.918579 
	C248.579224,440.944519 265.042450,445.507751 282.999939,445.509979 
	C355.833191,445.518982 428.666412,445.513672 502.499695,445.513702 
M1363.500366,1556.485962 
	C1220.845215,1556.485962 1078.189941,1556.485962 935.534729,1556.485962 
	C917.369385,1556.485962 899.203735,1556.544678 881.039124,1556.427490 
	C878.048340,1556.408203 876.193481,1557.250366 874.565613,1559.891968 
	C870.726196,1566.122681 866.702515,1572.263306 862.390198,1578.175415 
	C818.025757,1638.997070 758.634888,1671.256836 682.900940,1671.823608 
	C653.578674,1672.042969 627.694153,1661.914062 605.689819,1642.724854 
	C586.503357,1625.993286 576.038086,1604.819092 577.205261,1578.902344 
	C577.537537,1571.524170 579.342773,1564.212280 580.498718,1556.700439 
	C579.373413,1556.630005 578.230469,1556.495728 577.087585,1556.495728 
	C478.261566,1556.486450 379.435547,1556.483398 280.609528,1556.494629 
	C271.359161,1556.495728 262.451630,1558.077881 253.932297,1561.921143 
	C215.766235,1579.138306 203.981476,1625.671509 229.734253,1658.692505 
	C243.238647,1676.008301 261.680634,1682.572510 283.248199,1682.569336 
	C761.712830,1682.497070 1240.177490,1682.514526 1718.642090,1682.503540 
	C1721.472900,1682.503540 1724.315063,1682.477539 1727.132690,1682.237915 
	C1751.136108,1680.196411 1769.096802,1668.641479 1779.530151,1646.944092 
	C1790.032715,1625.102661 1788.265137,1603.357544 1774.419800,1583.528809 
	C1761.292480,1564.728516 1742.396484,1556.420410 1719.474243,1556.439697 
	C1601.149658,1556.539307 1482.825073,1556.485962 1363.500366,1556.485962 
M772.499939,857.837219 
	C780.616516,857.837219 788.733093,857.837219 797.539062,857.837219 
	C798.427490,815.588074 799.304565,773.876648 800.188721,731.831421 
	C797.336853,731.831421 795.357727,731.831482 793.378662,731.831482 
	C623.552124,731.831482 453.725525,731.831116 283.898956,731.834229 
	C281.566040,731.834290 279.232208,731.842529 276.900330,731.904541 
	C234.533997,733.031494 205.312317,775.967834 219.791458,815.807373 
	C229.333862,842.063416 252.629639,857.829712 282.019379,857.831726 
	C445.179535,857.842834 608.339722,857.837158 772.499939,857.837219 
M781.085876,1171.613403 
	C781.717834,1162.575073 782.349731,1153.536743 783.005127,1144.162598 
	C780.601013,1144.162598 778.956970,1144.162598 777.312866,1144.162598 
	C612.354980,1144.162720 447.397064,1144.162231 282.439178,1144.168213 
	C280.273956,1144.168213 278.104797,1144.181396 275.944061,1144.304321 
	C235.994934,1146.575806 208.056534,1184.442871 218.081039,1223.015991 
	C225.014389,1249.694702 249.635330,1270.375732 281.376007,1270.314087 
	C443.833923,1269.998657 606.292786,1270.168945 768.751282,1270.158813 
	C770.362488,1270.158691 771.973694,1270.013916 773.778503,1269.927368 
	C776.226868,1237.234131 778.648560,1204.896362 781.085876,1171.613403 
M1615.500000,1270.168457 
	C1652.328125,1270.137695 1689.162720,1270.531128 1725.982422,1269.958984 
	C1764.098877,1269.366699 1793.195801,1231.093994 1784.492554,1193.957764 
	C1777.412720,1163.748291 1752.702881,1144.214111 1721.145386,1144.185303 
	C1645.655151,1144.116699 1570.165039,1144.162842 1494.674805,1144.162720 
	C1457.512939,1144.162720 1420.351074,1144.125122 1383.189697,1144.269043 
	C1381.227783,1144.276611 1378.420654,1145.256836 1377.441162,1146.734619 
	C1363.210205,1168.206543 1346.351318,1187.499390 1328.680176,1206.122070 
	C1308.814819,1227.057129 1288.032593,1246.969482 1263.899414,1263.055908 
	C1260.710571,1265.181396 1257.472412,1267.232910 1254.257080,1269.318726 
	C1254.384644,1269.601929 1254.512207,1269.885254 1254.639771,1270.168457 
	C1374.593140,1270.168457 1494.546631,1270.168457 1615.500000,1270.168457 
M1263.500000,731.831055 
	C1162.207031,731.831055 1060.914062,731.813843 959.621094,731.906128 
	C956.233154,731.909241 952.649719,732.501892 949.491943,733.700745 
	C933.347351,739.830261 917.380127,746.431458 901.187073,752.425232 
	C897.613220,753.748047 896.314209,754.999878 896.445496,758.902283 
	C897.240417,782.531555 897.708191,806.171631 898.361938,829.805969 
	C898.617981,839.064148 899.072266,848.316833 899.437012,857.590759 
	C1023.682312,857.590759 1147.397949,857.590759 1272.024658,857.590759 
	C1278.206787,815.785706 1284.372681,774.090759 1290.622070,731.831055 
	C1281.107544,731.831055 1272.803833,731.831055 1263.500000,731.831055 
M1782.945190,775.651550 
	C1772.191162,746.873352 1750.687744,731.842102 1720.122437,731.837341 
	C1619.314453,731.821655 1518.506470,731.831360 1417.698486,731.831299 
	C1415.950317,731.831299 1414.202271,731.831299 1412.359253,731.831299 
	C1409.785156,774.178955 1407.256226,815.784058 1404.700073,857.837341 
	C1407.009521,857.837341 1408.640137,857.837341 1410.270752,857.837341 
	C1513.411499,857.837341 1616.552246,857.837830 1719.692993,857.833679 
	C1721.525269,857.833618 1723.359863,857.824280 1725.189575,857.740479 
	C1766.703247,855.840393 1794.836914,816.355469 1782.945190,775.651550 
M985.500061,1144.161621 
	C959.436218,1144.161621 933.372375,1144.161621 907.709778,1144.161621 
	C906.617371,1186.536011 905.546082,1228.093262 904.472412,1269.742432 
	C980.388367,1269.742432 1056.296631,1269.742432 1132.489624,1269.742432 
	C1089.739746,1237.300903 1082.028931,1193.512573 1090.460205,1144.161621 
	C1055.433105,1144.161621 1020.966614,1144.161621 985.500061,1144.161621 
z"/>
<path fill="#FDFDFD" opacity="1.000000" stroke="none" 
	d="
M2001.000000,85.531342 
	C1999.317627,78.995377 1998.057739,71.856491 1995.881592,65.008789 
	C1985.022461,30.838692 1952.182861,4.504936 1917.177734,1.365895 
	C1944.927368,1.000000 1972.854614,1.000000 2001.000000,1.000000 
	C2001.000000,29.020517 2001.000000,57.041599 2001.000000,85.531342 
z"/>
<path fill="#FDFDFD" opacity="1.000000" stroke="none" 
	d="
M1915.468628,2001.000000 
	C1925.480103,1998.093506 1936.595459,1996.552490 1946.322998,1992.028076 
	C1977.537109,1977.510498 1995.116211,1952.323608 2000.655029,1918.194336 
	C2001.000000,1945.594849 2001.000000,1973.189819 2001.000000,2001.000000 
	C1972.646118,2001.000000 1944.291626,2001.000000 1915.468628,2001.000000 
z"/>
<path fill="#FDFDFD" opacity="1.000000" stroke="none" 
	d="
M1.000000,1915.468628 
	C3.008695,1929.246216 6.557063,1943.031372 14.318653,1955.327759 
	C30.420729,1980.838135 53.187618,1996.237671 83.353615,2000.189087 
	C84.318794,2000.315430 85.251976,2000.686157 86.600044,2000.971436 
	C58.406422,2001.000000 29.812840,2001.000000 1.000000,2001.000000 
	C1.000000,1972.646118 1.000000,1944.291748 1.000000,1915.468628 
z"/>
<path fill="#FDFDFD" opacity="1.000000" stroke="none" 
	d="
M83.531342,1.000000 
	C77.069443,2.858539 69.919067,4.138306 63.245266,6.672901 
	C29.069633,19.652218 9.050682,44.599987 2.050784,80.274948 
	C1.955487,80.760620 1.831328,81.240646 1.360319,81.861649 
	C1.000000,55.072208 1.000000,28.144415 1.000000,1.000000 
	C28.353846,1.000000 55.708263,1.000000 83.531342,1.000000 
z"/>
<path fill="#FEFEFE" opacity="1.000000" stroke="none" 
	d="
M622.572510,1635.435547 
	C608.015747,1624.366821 597.763245,1610.821289 594.425781,1592.835327 
	C591.711304,1578.206421 595.298340,1564.355713 600.458130,1550.848999 
	C609.786255,1526.431152 622.845032,1503.989990 637.912598,1482.756348 
	C661.868713,1448.996704 687.864502,1416.950928 719.014526,1389.414795 
	C735.743530,1374.626709 754.760376,1363.387451 774.558472,1353.296143 
	C776.555359,1352.278198 778.467163,1349.776367 779.092712,1347.584839 
	C786.779602,1320.652832 788.655090,1292.849243 790.836487,1265.128052 
	C793.541626,1230.750366 795.977539,1196.350098 798.298523,1161.943970 
	C800.686707,1126.541382 803.281738,1091.142578 804.928772,1055.702271 
	C808.517090,978.488342 811.678345,901.253784 814.753540,824.017212 
	C815.654907,801.378418 815.582886,778.702271 816.139221,756.047791 
	C816.507202,741.063843 817.117126,726.084229 817.793213,711.110535 
	C818.024719,705.982544 817.287415,701.374695 814.609741,696.794006 
	C807.944214,685.390991 810.671570,671.104370 821.100891,662.542114 
	C824.981201,659.356445 826.726257,655.930176 827.304932,650.798828 
	C829.755005,629.072937 846.299133,620.652710 865.019409,627.319458 
	C874.678345,630.759094 878.817688,639.826233 880.923340,649.528381 
	C881.376770,651.617676 881.655334,653.744812 882.157166,656.693726 
	C890.578125,653.477539 898.717590,650.711853 906.581543,647.309387 
	C955.410095,626.182556 1001.758667,600.217346 1047.804932,573.780945 
	C1094.438110,547.007568 1140.704712,519.580566 1186.778809,491.853241 
	C1230.612549,465.474213 1273.631836,437.781433 1312.142456,403.826630 
	C1330.378296,387.748047 1347.905151,370.863556 1365.702271,354.289490 
	C1373.915039,346.641052 1382.950928,342.636627 1394.372925,346.364502 
	C1406.358887,350.276398 1414.104614,361.716644 1413.511353,377.099915 
	C1412.946899,391.736237 1411.012085,406.315735 1410.280151,420.950256 
	C1407.408569,478.356598 1404.809326,535.776489 1402.042358,593.188171 
	C1398.986572,656.594360 1395.778564,719.993286 1392.785278,783.402405 
	C1390.263550,836.823608 1387.946411,890.254578 1385.587524,943.683411 
	C1385.515991,945.302063 1385.536499,947.194763 1386.277954,948.538208 
	C1394.927490,964.208984 1395.862793,981.658813 1397.919067,998.810974 
	C1404.944824,1057.412476 1386.335327,1108.641846 1351.360229,1154.482056 
	C1325.208740,1188.757568 1295.489258,1219.815796 1260.485474,1245.351440 
	C1243.960938,1257.406494 1226.308716,1267.992065 1205.699097,1270.705688 
	C1169.452148,1275.478271 1140.183960,1262.431763 1119.258057,1232.472534 
	C1105.152954,1212.278564 1101.895020,1188.963379 1104.554932,1165.040771 
	C1111.474365,1102.810669 1139.576538,1051.220459 1184.510010,1008.213379 
	C1206.094360,987.554443 1231.330322,972.610718 1258.011719,959.773682 
	C1260.111084,958.763611 1262.078125,957.302551 1264.283447,956.719543 
	C1273.902222,954.176941 1275.892090,947.357239 1277.136597,938.296631 
	C1283.117310,894.747192 1290.075073,851.333130 1296.357300,807.823547 
	C1300.426880,779.638062 1303.961914,751.375061 1307.681030,723.139465 
	C1313.031250,682.518677 1318.173218,641.869812 1323.700195,601.273254 
	C1328.551758,565.637451 1333.741943,530.047058 1338.936646,494.459106 
	C1340.301270,485.110779 1342.237671,475.845917 1344.204956,464.912109 
	C1339.711426,467.984528 1336.444458,470.071442 1333.332764,472.368683 
	C1302.113770,495.416595 1271.435547,519.240967 1239.574707,541.362915 
	C1207.718384,563.481812 1174.874023,584.203125 1142.116699,604.991882 
	C1110.208496,625.241699 1078.302124,645.562195 1045.598267,664.474121 
	C1003.527344,688.803040 960.884827,712.237671 915.556213,730.157654 
	C904.159790,734.663025 892.165955,737.657227 880.008667,741.483887 
	C880.008667,748.418518 879.819275,756.027283 880.039612,763.624146 
	C881.406677,810.757019 882.989624,857.883972 884.266785,905.019165 
	C886.527893,988.465942 889.540894,1071.907471 890.432678,1155.370361 
	C890.948425,1203.647827 887.902161,1251.962280 886.537476,1300.262207 
	C886.316772,1308.072388 886.506470,1315.894165 886.506470,1324.067139 
	C888.610107,1324.643311 891.022949,1325.227661 893.388062,1325.965210 
	C904.495789,1329.429199 912.227356,1336.154663 914.945251,1347.940063 
	C922.414001,1380.326782 921.635010,1412.306396 911.125183,1444.024048 
	C895.449890,1491.330566 873.803772,1535.640259 843.741333,1575.427856 
	C805.325256,1626.271362 753.320679,1652.244629 690.060425,1655.723877 
	C665.498352,1657.074585 643.002808,1649.905396 622.572510,1635.435547 
z"/>
<path fill="#FDFDFD" opacity="1.000000" stroke="none" 
	d="
M501.999695,445.513672 
	C428.666412,445.513672 355.833191,445.518982 282.999939,445.509979 
	C265.042450,445.507751 248.579224,440.944519 235.642548,427.918579 
	C216.323883,408.466583 210.640457,385.205231 220.523315,359.611328 
	C230.020599,335.015991 249.109085,321.993866 275.413208,319.733398 
	C277.899292,319.519714 280.407379,319.495880 282.905273,319.495819 
	C761.571350,319.485992 1240.237427,319.503693 1718.903442,319.432678 
	C1741.728882,319.429321 1760.587280,327.174408 1774.218628,345.842346 
	C1801.294800,382.922668 1779.302368,436.665283 1734.054321,444.072693 
	C1728.657959,444.956116 1723.133301,445.449951 1717.667480,445.454651 
	C1622.334229,445.536530 1527.001099,445.513733 1431.667847,445.513733 
	C1429.693359,445.513733 1427.718994,445.513733 1425.016968,445.513733 
	C1425.820557,434.688202 1426.622559,424.311890 1427.353271,413.930573 
	C1428.253296,401.146454 1429.692871,388.363922 1429.815796,375.570343 
	C1429.987427,357.688080 1423.198242,342.553070 1406.883789,334.112091 
	C1388.219971,324.455627 1370.985840,326.985352 1354.979248,341.826996 
	C1336.296265,359.150269 1318.270142,377.277863 1298.644165,393.462067 
	C1277.098389,411.229279 1254.109131,427.254150 1231.570679,443.795380 
	C1229.549072,445.279114 1226.221313,445.439209 1223.498657,445.443970 
	C1170.998901,445.536072 1118.498901,445.513580 1065.999023,445.513641 
	C878.165894,445.513885 690.332825,445.513702 501.999695,445.513672 
z"/>
<path fill="#FDFDFD" opacity="1.000000" stroke="none" 
	d="
M1364.000488,1556.485962 
	C1482.825073,1556.485962 1601.149658,1556.539307 1719.474243,1556.439697 
	C1742.396484,1556.420410 1761.292480,1564.728516 1774.419800,1583.528809 
	C1788.265137,1603.357544 1790.032715,1625.102661 1779.530151,1646.944092 
	C1769.096802,1668.641479 1751.136108,1680.196411 1727.132690,1682.237915 
	C1724.315063,1682.477539 1721.472900,1682.503540 1718.642090,1682.503540 
	C1240.177490,1682.514526 761.712830,1682.497070 283.248199,1682.569336 
	C261.680634,1682.572510 243.238647,1676.008301 229.734253,1658.692505 
	C203.981476,1625.671509 215.766235,1579.138306 253.932297,1561.921143 
	C262.451630,1558.077881 271.359161,1556.495728 280.609528,1556.494629 
	C379.435547,1556.483398 478.261566,1556.486450 577.087585,1556.495728 
	C578.230469,1556.495728 579.373413,1556.630005 580.498718,1556.700439 
	C579.342773,1564.212280 577.537537,1571.524170 577.205261,1578.902344 
	C576.038086,1604.819092 586.503357,1625.993286 605.689819,1642.724854 
	C627.694153,1661.914062 653.578674,1672.042969 682.900940,1671.823608 
	C758.634888,1671.256836 818.025757,1638.997070 862.390198,1578.175415 
	C866.702515,1572.263306 870.726196,1566.122681 874.565613,1559.891968 
	C876.193481,1557.250366 878.048340,1556.408203 881.039124,1556.427490 
	C899.203735,1556.544678 917.369385,1556.485962 935.534729,1556.485962 
	C1078.189941,1556.485962 1220.845215,1556.485962 1364.000488,1556.485962 
z"/>
<path fill="#FEFEFE" opacity="1.000000" stroke="none" 
	d="
M771.999878,857.837219 
	C608.339722,857.837158 445.179535,857.842834 282.019379,857.831726 
	C252.629639,857.829712 229.333862,842.063416 219.791458,815.807373 
	C205.312317,775.967834 234.533997,733.031494 276.900330,731.904541 
	C279.232208,731.842529 281.566040,731.834290 283.898956,731.834229 
	C453.725525,731.831116 623.552124,731.831482 793.378662,731.831482 
	C795.357727,731.831482 797.336853,731.831421 800.188721,731.831421 
	C799.304565,773.876648 798.427490,815.588074 797.539062,857.837219 
	C788.733093,857.837219 780.616516,857.837219 771.999878,857.837219 
z"/>
<path fill="#FEFEFE" opacity="1.000000" stroke="none" 
	d="
M781.078064,1172.086060 
	C778.648560,1204.896362 776.226868,1237.234131 773.778503,1269.927368 
	C771.973694,1270.013916 770.362488,1270.158691 768.751282,1270.158813 
	C606.292786,1270.168945 443.833923,1269.998657 281.376007,1270.314087 
	C249.635330,1270.375732 225.014389,1249.694702 218.081039,1223.015991 
	C208.056534,1184.442871 235.994934,1146.575806 275.944061,1144.304321 
	C278.104797,1144.181396 280.273956,1144.168213 282.439178,1144.168213 
	C447.397064,1144.162231 612.354980,1144.162720 777.312866,1144.162598 
	C778.956970,1144.162598 780.601013,1144.162598 783.005127,1144.162598 
	C782.349731,1153.536743 781.717834,1162.575073 781.078064,1172.086060 
z"/>
<path fill="#FEFEFE" opacity="1.000000" stroke="none" 
	d="
M1615.000000,1270.168457 
	C1494.546631,1270.168457 1374.593140,1270.168457 1254.639771,1270.168457 
	C1254.512207,1269.885254 1254.384644,1269.601929 1254.257080,1269.318726 
	C1257.472412,1267.232910 1260.710571,1265.181396 1263.899414,1263.055908 
	C1288.032593,1246.969482 1308.814819,1227.057129 1328.680176,1206.122070 
	C1346.351318,1187.499390 1363.210205,1168.206543 1377.441162,1146.734619 
	C1378.420654,1145.256836 1381.227783,1144.276611 1383.189697,1144.269043 
	C1420.351074,1144.125122 1457.512939,1144.162720 1494.674805,1144.162720 
	C1570.165039,1144.162842 1645.655151,1144.116699 1721.145386,1144.185303 
	C1752.702881,1144.214111 1777.412720,1163.748291 1784.492554,1193.957764 
	C1793.195801,1231.093994 1764.098877,1269.366699 1725.982422,1269.958984 
	C1689.162720,1270.531128 1652.328125,1270.137695 1615.000000,1270.168457 
z"/>
<path fill="#FEFEFE" opacity="1.000000" stroke="none" 
	d="
M1264.000000,731.831055 
	C1272.803833,731.831055 1281.107544,731.831055 1290.622070,731.831055 
	C1284.372681,774.090759 1278.206787,815.785706 1272.024658,857.590759 
	C1147.397949,857.590759 1023.682312,857.590759 899.437012,857.590759 
	C899.072266,848.316833 898.617981,839.064148 898.361938,829.805969 
	C897.708191,806.171631 897.240417,782.531555 896.445496,758.902283 
	C896.314209,754.999878 897.613220,753.748047 901.187073,752.425232 
	C917.380127,746.431458 933.347351,739.830261 949.491943,733.700745 
	C952.649719,732.501892 956.233154,731.909241 959.621094,731.906128 
	C1060.914062,731.813843 1162.207031,731.831055 1264.000000,731.831055 
z"/>
<path fill="#FEFEFE" opacity="1.000000" stroke="none" 
	d="
M1783.038330,776.042053 
	C1794.836914,816.355469 1766.703247,855.840393 1725.189575,857.740479 
	C1723.359863,857.824280 1721.525269,857.833618 1719.692993,857.833679 
	C1616.552246,857.837830 1513.411499,857.837341 1410.270752,857.837341 
	C1408.640137,857.837341 1407.009521,857.837341 1404.700073,857.837341 
	C1407.256226,815.784058 1409.785156,774.178955 1412.359253,731.831299 
	C1414.202271,731.831299 1415.950317,731.831299 1417.698486,731.831299 
	C1518.506470,731.831360 1619.314453,731.821655 1720.122437,731.837341 
	C1750.687744,731.842102 1772.191162,746.873352 1783.038330,776.042053 
z"/>
<path fill="#FEFEFE" opacity="1.000000" stroke="none" 
	d="
M986.000122,1144.161621 
	C1020.966614,1144.161621 1055.433105,1144.161621 1090.460205,1144.161621 
	C1082.028931,1193.512573 1089.739746,1237.300903 1132.489624,1269.742432 
	C1056.296631,1269.742432 980.388367,1269.742432 904.472412,1269.742432 
	C905.546082,1228.093262 906.617371,1186.536011 907.709778,1144.161621 
	C933.372375,1144.161621 959.436218,1144.161621 986.000122,1144.161621 
z"/>
</svg>